<svg width="15" height="15" viewBox="0 0 15 15" fill="none" xmlns="http://www.w3.org/2000/svg">
<path d="M3 0C1.34315 0 0 1.34315 0 3V11.4C0 13.0569 1.34315 14.4 3 14.4H7.8C9.45686 14.4 10.8 13.0569 10.8 11.4V10.8C10.8 10.4686 10.5314 10.2 10.2 10.2C9.86863 10.2 9.6 10.4686 9.6 10.8V11.4C9.6 12.3941 8.79411 13.2 7.8 13.2H3C2.00589 13.2 1.2 12.3941 1.2 11.4V3C1.2 2.00589 2.00589 1.2 3 1.2H7.8C8.79411 1.2 9.6 2.00589 9.6 3V3.6C9.6 3.93137 9.86863 4.2 10.2 4.2C10.5314 4.2 10.8 3.93137 10.8 3.6V3C10.8 1.34315 9.45686 0 7.8 0H3Z" fill="currentColor"/>
<path d="M12.1757 4.97574C11.9414 5.21005 11.9414 5.58995 12.1757 5.82427L12.9515 6.6H5.99996C5.66859 6.6 5.39996 6.86863 5.39996 7.2C5.39996 7.53137 5.66859 7.8 5.99996 7.8H12.9515L12.1757 8.57574C11.9414 8.81005 11.9414 9.18995 12.1757 9.42427C12.4101 9.65858 12.79 9.65858 13.0243 9.42427L14.8243 7.62427C14.8823 7.56628 14.9259 7.49938 14.9552 7.42798C14.9823 7.36211 14.9979 7.29036 14.9998 7.21517C14.9999 7.21011 15 7.20506 15 7.2C15 7.1904 14.9998 7.18081 14.9993 7.17122C14.9925 7.0274 14.9341 6.88557 14.8243 6.77574L13.0243 4.97574C12.79 4.74142 12.4101 4.74142 12.1757 4.97574Z" fill="currentColor"/>
</svg>
