<svg width="37" height="37" viewBox="0 0 37 37" fill="none" xmlns="http://www.w3.org/2000/svg">
    <path fill-rule="evenodd" clip-rule="evenodd" d="M3.65125 0C1.63472 0 0 1.63472 0 3.65125V33.3488C0 35.3653 1.63472 37 3.65125 37H33.3488C35.3653 37 37 35.3653 37 33.3487V3.65125C37 1.63472 35.3653 0 33.3487 0H3.65125ZM18.9712 5.70102C18.8308 5.14637 18.0417 5.14637 17.9014 5.70102L16.0835 12.8854C15.9992 13.2184 15.6339 13.3941 15.3207 13.2523L8.56261 10.1922C8.04087 9.95596 7.54886 10.5721 7.89559 11.0275L12.3868 16.9263C12.5949 17.1996 12.5047 17.5944 12.1984 17.7505L5.5891 21.1191C5.07885 21.3791 5.25445 22.1474 5.82716 22.1606L13.2455 22.3319C13.5893 22.3398 13.8421 22.6564 13.7734 22.9929L12.2898 30.2535C12.1753 30.814 12.8862 31.1559 13.2537 30.717L18.013 25.0318C18.2335 24.7683 18.639 24.7683 18.8596 25.0318L23.6189 30.717C23.9863 31.1559 24.6973 30.814 24.5828 30.2535L23.0992 22.9929C23.0304 22.6564 23.2833 22.3398 23.627 22.3319L31.0454 22.1606C31.6181 22.1474 31.7937 21.3791 31.2835 21.1191L24.6741 17.7505C24.3679 17.5944 24.2776 17.1996 24.4857 16.9263L28.977 11.0275C29.3237 10.5721 28.8317 9.95596 28.31 10.1922L21.5518 13.2523C21.2387 13.3941 20.8733 13.2184 20.7891 12.8854L18.9712 5.70102Z" fill="currentColor"/>
</svg>
