<svg width="38" height="38" viewBox="0 0 38 38" fill="none" xmlns="http://www.w3.org/2000/svg">
<path fill-rule="evenodd" clip-rule="evenodd" d="M3.74993 0C1.6789 0 0 1.6789 0 3.74993V34.2501C0 36.3211 1.6789 38 3.74993 38H34.2501C36.3211 38 38 36.3211 38 34.2501V3.74993C38 1.6789 36.3211 0 34.2501 0H3.74993ZM19.484 5.85515C19.3398 5.28551 18.5294 5.2855 18.3852 5.85514L16.5182 13.2337C16.4317 13.5757 16.0565 13.7561 15.7348 13.6105L8.79406 10.4677C8.25822 10.2251 7.75291 10.8579 8.10901 11.3256L12.7216 17.3838C12.9354 17.6645 12.8427 18.07 12.5282 18.2303L5.74019 21.6899C5.21614 21.957 5.39649 22.746 5.98468 22.7596L13.6036 22.9355C13.9566 22.9436 14.2163 23.2688 14.1457 23.6143L12.622 31.0712C12.5043 31.6469 13.2345 31.998 13.6119 31.5473L18.4999 25.7083C18.7264 25.4378 19.1428 25.4378 19.3693 25.7083L24.2573 31.5472C24.6346 31.998 25.3648 31.6469 25.2472 31.0712L23.7235 23.6143C23.6529 23.2688 23.9126 22.9436 24.2656 22.9355L31.8845 22.7596C32.4727 22.746 32.653 21.957 32.129 21.6899L25.341 18.2303C25.0265 18.07 24.9338 17.6645 25.1476 17.3838L29.7602 11.3256C30.1163 10.8579 29.611 10.2251 29.0751 10.4677L22.1343 13.6105C21.8127 13.7561 21.4375 13.5757 21.351 13.2337L19.484 5.85515Z" fill="white"/>
</svg>
