<svg width="22" height="18" viewBox="0 0 22 18" fill="none" xmlns="http://www.w3.org/2000/svg">
<path d="M18.5837 9.21667C18.5837 8.57573 18.8383 7.96104 19.2915 7.50783C19.7447 7.05461 20.3594 6.8 21.0003 6.8V5.83333C21.0003 1.96667 20.0337 1 16.167 1H6.50033C2.63366 1 1.66699 1.96667 1.66699 5.83333V6.31667C2.30793 6.31667 2.92262 6.57128 3.37583 7.02449C3.82905 7.47771 4.08366 8.09239 4.08366 8.73333C4.08366 9.37427 3.82905 9.98896 3.37583 10.4422C2.92262 10.8954 2.30793 11.15 1.66699 11.15V11.6333C1.66699 15.5 2.63366 16.4667 6.50033 16.4667H16.167C20.0337 16.4667 21.0003 15.5 21.0003 11.6333C20.3594 11.6333 19.7447 11.3787 19.2915 10.9255C18.8383 10.4723 18.5837 9.85761 18.5837 9.21667Z" stroke="currentColor" stroke-width="1.5" stroke-linecap="round" stroke-linejoin="round"/>
<path d="M9.40039 1V16.4667" stroke="currentColor" stroke-width="1.5" stroke-linecap="round" stroke-linejoin="round" stroke-dasharray="5 5"/>
</svg>
