<svg width="21" height="25" viewBox="0 0 21 25" fill="none" xmlns="http://www.w3.org/2000/svg">
<path fill-rule="evenodd" clip-rule="evenodd" d="M7.82063 9.00785C7.77545 9.18213 7.69666 9.34576 7.58864 9.48951C7.38754 9.75165 7.1214 9.95607 6.81689 10.0824C6.54305 10.2009 6.25297 10.2776 5.95646 10.3097C5.8955 10.3175 5.83234 10.3222 5.77108 10.3269L5.76111 10.3277C5.57331 10.3348 5.39276 10.4022 5.24583 10.5199C5.0989 10.6377 4.99337 10.7996 4.94464 10.9819C4.92236 11.0726 4.90574 11.1646 4.89501 11.2574C4.87794 11.3974 4.86918 11.5407 4.85966 11.6957C4.85286 11.8069 4.84561 11.9243 4.83473 12.0506C4.77097 12.5655 4.62268 13.0662 4.39598 13.5324C4.34967 13.6304 4.30245 13.7254 4.256 13.8187C4.00746 14.3188 3.78287 14.7705 3.84731 15.3756C3.89777 15.8417 4.13551 16.1541 4.45135 16.4763C4.60138 16.6304 4.80028 16.7621 5.00674 16.8988C5.58464 17.2814 6.22177 17.7032 6.01183 18.7659C5.84005 19.627 4.41879 20.5307 2.42114 20.8463C2.61491 20.8168 2.18809 20.0852 2.14073 20.004L2.13786 19.9991C2.08279 19.9124 2.02636 19.8271 1.97008 19.7419C1.80751 19.4957 1.64555 19.2509 1.51924 18.9794C1.18549 18.2704 1.03078 17.4502 1.16751 16.6733C1.2914 15.9702 1.75418 15.4086 2.19965 14.8678C2.27232 14.7796 2.34447 14.6921 2.41464 14.6045C3.01052 13.8612 3.63572 12.8872 3.77403 11.9223C3.78574 11.8384 3.79617 11.747 3.80712 11.6509C3.82676 11.4787 3.84807 11.2913 3.88153 11.1045C3.93116 10.782 4.03179 10.4695 4.17947 10.1788C4.28025 9.98825 4.41297 9.81646 4.57184 9.67104C4.65463 9.59384 4.70925 9.49095 4.72701 9.37885C4.74468 9.26682 4.72444 9.15199 4.66952 9.0528L1.48502 3.29917L6.05905 8.9694C6.11117 9.03513 6.17697 9.08853 6.25191 9.12578C6.32685 9.16302 6.40904 9.18326 6.49259 9.18508C6.57621 9.18689 6.65916 9.1702 6.73561 9.13613C6.81206 9.10213 6.88012 9.05159 6.93497 8.98821C6.99291 8.92038 7.02577 8.83448 7.02796 8.74504C7.03022 8.65567 7.00167 8.56827 6.94713 8.49756C6.73448 8.22455 6.51313 7.94784 6.29285 7.67234C6.20371 7.56091 6.11465 7.44949 6.02649 7.33882L4.87545 5.90781L2.5652 3.05056L0 0L2.86156 2.79462L5.32069 5.52587L6.54751 6.89478C6.66022 7.02229 6.77293 7.14868 6.88556 7.27498C7.17987 7.60495 7.47419 7.93492 7.7685 8.28499L7.83528 8.36672L7.84994 8.49348C7.86973 8.66534 7.85983 8.83939 7.82063 9.00785ZM19.5842 10.9308L19.589 10.9382C19.5882 10.3281 19.2122 9.32151 18.4511 8.35328L18.4332 8.32956C18.1987 8.03849 17.9432 7.76518 17.6687 7.51181C17.6174 7.46195 17.5622 7.41285 17.5059 7.36382C17.1543 7.05576 16.7699 6.78751 16.3598 6.56405L16.3305 6.54932C15.0419 5.84443 13.365 5.48137 11.2973 5.89021C11.0196 5.55155 10.7206 5.23118 10.4019 4.93105C9.91391 4.46389 9.33949 4.09751 8.7112 3.85245C8.0885 3.62348 7.42161 3.54174 6.76235 3.61366C7.39781 3.67115 8.01681 3.84867 8.58663 4.13702C9.13696 4.43322 9.63259 4.82211 10.0519 5.28678C10.4769 5.76111 10.8763 6.25788 11.2485 6.77504L11.3419 6.89719C11.7061 7.37364 12.0768 7.8587 12.5387 8.29035C12.793 8.53065 13.0767 8.73756 13.3829 8.9061C13.4643 8.9478 13.5465 8.98701 13.6271 9.02138C13.7077 9.05575 13.7834 9.08763 13.8648 9.11709C14.0219 9.17835 14.1847 9.22912 14.3475 9.27573C14.9988 9.46217 15.6654 9.52917 16.3167 9.56521C16.4073 9.56997 16.4977 9.57442 16.5877 9.57888C16.8203 9.59044 17.051 9.60185 17.278 9.61831C17.5891 9.6369 17.8977 9.68562 18.1995 9.76388C18.6528 9.88264 19.0519 10.1539 19.3302 10.5325C19.4248 10.6587 19.5097 10.7918 19.5842 10.9308ZM17.678 7.51279C17.6452 7.48242 17.6119 7.45236 17.5788 7.42237C17.5575 7.4031 17.5362 7.38391 17.5152 7.36473C17.5314 7.37961 17.5476 7.39464 17.5639 7.40975C17.6021 7.44518 17.6403 7.48061 17.678 7.51279ZM16.864 13.5351C14.7698 12.6815 12.5792 11.7885 12.9053 9.2823C13.6045 10.0322 14.7021 10.1895 15.8958 10.3606C16.9787 10.5158 18.1407 10.6823 19.1563 11.3127C21.5528 12.7994 21.2028 15.6876 20.3887 16.7507C20.4622 15.0018 18.7001 14.2836 16.864 13.5351ZM8.42686 12.2807C8.9796 12.2276 10.1575 11.9389 9.63085 11.0075C9.51754 10.818 9.35331 10.6645 9.15705 10.5645C8.96079 10.4645 8.74043 10.4222 8.52129 10.4424C8.29896 10.4664 8.08926 10.5585 7.9208 10.7063C7.75234 10.854 7.63313 11.0502 7.57949 11.2683C7.41587 11.8776 7.58924 12.3625 8.42686 12.2807ZM8.26799 4.91133C7.92125 4.50899 7.38316 4.298 6.85564 4.22117C6.83593 4.35314 6.82346 4.4861 6.81825 4.61943C6.79461 5.7176 7.1829 6.92378 7.93424 7.76201C8.17462 8.03298 8.46448 8.255 8.78818 8.41621C8.97537 8.50776 9.47199 8.73507 9.65594 8.53065C9.66991 8.51192 9.67875 8.48978 9.68147 8.46652C9.68419 8.44325 9.68071 8.41968 9.67142 8.39823C9.6409 8.31067 9.58205 8.2312 9.52358 8.15234C9.48211 8.09643 9.44086 8.04083 9.41012 7.98274C9.37899 7.92427 9.34568 7.86716 9.31244 7.8102C9.24997 7.70308 9.18765 7.59619 9.13983 7.47985C9.01367 7.17534 8.94803 6.85157 8.88253 6.52877C8.86946 6.46426 8.85632 6.39937 8.84272 6.33501C8.74263 5.83703 8.61481 5.31367 8.26799 4.91133ZM15.6769 13.6717C15.139 15.1798 16.0066 16.4535 16.8691 17.7197C17.8339 19.1361 18.7923 20.5431 17.7697 22.258C19.7568 21.4338 20.7003 18.9438 19.8756 16.9681C19.3561 15.7185 18.1037 15.041 16.9413 14.4123C16.4903 14.1683 16.0527 13.9316 15.6769 13.6717ZM9.86224 17.2715C9.50213 17.4191 9.16257 17.6129 8.85201 17.8481C9.55818 17.5908 10.2994 17.4439 11.0499 17.4122C11.1859 17.4041 11.3229 17.3978 11.4609 17.3913C11.6995 17.3803 11.9422 17.3691 12.1896 17.3484C12.5951 17.3208 12.9952 17.2382 13.3788 17.1031C13.7809 16.9618 14.1467 16.7328 14.4501 16.4326C14.7566 16.1226 14.9716 15.7334 15.0712 15.3081C15.1588 14.9064 15.1465 14.4892 15.0354 14.0934C14.9242 13.6975 14.7176 13.3354 14.4339 13.0389C14.5707 13.3877 14.655 13.7551 14.6838 14.129C14.7085 14.477 14.6614 14.8264 14.5454 15.1552C14.432 15.4669 14.2468 15.7472 14.0048 15.973C13.7549 16.201 13.4655 16.3811 13.1509 16.5045C12.7137 16.6814 12.2194 16.7538 11.7045 16.8292C11.4696 16.8635 11.2305 16.8986 10.9905 16.9444C10.6045 17.0154 10.2265 17.1251 9.86224 17.2715ZM16.1047 23.4972L16.0702 23.5251C15.9792 23.5986 15.8867 23.6735 15.7871 23.7406C15.6601 23.8246 15.527 23.899 15.389 23.963C15.1016 24.1039 14.7857 24.1758 14.4659 24.1732C13.5998 24.1569 12.9876 23.5092 12.6294 22.7773C12.5355 22.5855 12.4528 22.3877 12.3701 22.19C12.2377 21.8734 12.1053 21.5569 11.9269 21.2645C11.5126 20.585 10.8036 20.0379 9.97329 20.1393C9.63463 20.1818 9.31713 20.3347 9.1291 20.6299C8.63414 21.4011 9.34485 22.4813 10.2508 22.3284C10.3279 22.3166 10.4033 22.2957 10.4755 22.2663C10.5475 22.2354 10.6146 22.1944 10.6749 22.1444C10.8015 22.0385 10.8969 21.9 10.9509 21.7437C11.0104 21.5807 11.0236 21.4043 10.9892 21.2343C10.952 21.0565 10.8475 20.9002 10.6977 20.7984C10.8719 20.8803 11.0075 21.0269 11.0763 21.2072C11.1475 21.3929 11.1659 21.5948 11.1292 21.7903C11.0936 21.994 11.0042 22.1844 10.8703 22.3415C10.7992 22.4223 10.7169 22.4925 10.6261 22.55C10.5361 22.6068 10.4396 22.6527 10.3388 22.6866C10.1343 22.7568 9.91663 22.7794 9.70217 22.7528C9.40105 22.7097 9.11709 22.586 8.88004 22.3946C8.83622 22.3599 8.79422 22.3235 8.7535 22.2857C8.59222 22.1459 8.44582 21.9895 8.31672 21.8189C8.25877 21.7548 8.19993 21.6916 8.13843 21.6309C7.8482 21.3249 7.50577 21.0737 7.12737 20.8892C6.86645 20.7741 6.59336 20.689 6.3134 20.6357C6.17251 20.6062 6.03012 20.585 5.88764 20.567C5.87216 20.5654 5.84247 20.5602 5.80545 20.5538C5.68655 20.533 5.49278 20.4993 5.45864 20.531C5.89897 20.1238 6.3789 19.7622 6.8913 19.4515C7.41746 19.138 7.98236 18.8952 8.57152 18.7295C9.18228 18.5568 9.82122 18.5076 10.4511 18.5848C10.7753 18.6239 11.0929 18.7064 11.3954 18.8301C11.7123 18.9573 12.0048 19.1388 12.2599 19.3666C12.5123 19.6054 12.7163 19.8912 12.8606 20.208C12.9909 20.5046 13.0881 20.8148 13.1504 21.1328C13.1838 21.304 13.209 21.492 13.235 21.6867C13.3537 22.5738 13.4908 23.5974 14.5074 23.7758C14.572 23.7884 14.6372 23.7977 14.7028 23.8036L14.9055 23.8085C15.0448 23.7985 15.1833 23.7786 15.3198 23.7488C15.6027 23.682 15.8783 23.5875 16.1428 23.4667L16.1047 23.4972ZM8.3702 21.8786C8.39452 21.9065 8.41915 21.9342 8.44408 21.9616C8.43388 21.9502 8.42376 21.9387 8.41356 21.9273C8.39913 21.9111 8.3847 21.8948 8.3702 21.8786Z" fill="#FF007A"/>
</svg>
